<?xml version="1.0" encoding="utf-8"?>
<!-- Generator: Adobe Illustrator 26.2.0, SVG Export Plug-In . SVG Version: 6.00 Build 0)  -->
<svg version="1.1" id="Layer_1" xmlns="http://www.w3.org/2000/svg" xmlns:xlink="http://www.w3.org/1999/xlink" x="0px" y="0px"
	 viewBox="0 0 302.44 66.61" style="enable-background:new 0 0 302.44 66.61;" xml:space="preserve">
<style type="text/css">
	.st0{fill:#69718D;}
</style>
<g>
	<g>
		<path class="st0" d="M114.06,11.34v8.42h-3.88v-8.42h-6.75v18.28H89.81c-0.47,0-0.84-0.38-0.84-0.84l0.01-0.15V15.04h11.35v-3.7
			h-18.1v17.44l0.01,0.01c-0.02,0.15-0.03,0.3-0.03,0.45c0,2.27,1.84,4.11,4.11,4.11c0.16,0,0.31-0.01,0.47-0.03h16.59v10.04h6.81
			V23.82h3.88v19.53h6.81V11.34H114.06z"/>
		<path class="st0" d="M201.83,11.34v8.42h-3.88v-8.42h-6.75v18.28h-13.62c-0.47,0-0.84-0.38-0.84-0.84l0.01-0.15V15.04h11.35v-3.7
			h-18.1v17.44l0.01,0.01c-0.02,0.15-0.03,0.3-0.03,0.45c0,2.27,1.84,4.11,4.11,4.11c0.16,0,0.31-0.01,0.47-0.03h16.59v10.04h6.81
			V23.82h3.88v19.53h6.81V11.34H201.83z"/>
		<path class="st0" d="M297.79,35.3V15.66l0-0.01c0-2.19-1.71-3.97-3.86-4.1V11.5h-30.4v3.66h26.66c0.47,0,0.84,0.38,0.84,0.85
			l0.01,0V35.3h-5.05V24.31h-6.75V35.3h-4.72V24.31h-6.75V35.3h-6.93V39h41.61v-3.7H297.79z"/>
		<g>
			<path class="st0" d="M253.82,33.78c0-2.19-1.71-3.97-3.86-4.1v-0.04H219.5v3.66h26.72c0.47,0,0.84,0.38,0.84,0.85l0.01,0v9.27
				h6.75v-9.63"/>
			<polygon class="st0" points="258.24,18.53 253.63,18.53 253.63,11.31 246.89,11.31 246.89,28.44 253.63,28.44 253.63,22.24 
				258.24,22.24 			"/>
			<path class="st0" d="M236.87,15h5.74v-3.68H231.5V8.45h-6.75v2.87c0,0,0,0-0.01,0h-11.12V15h6.76"/>
		</g>
		<path class="st0" d="M228.19,11.78c-7.56,0-13.68,3.68-13.68,8.22c0,4.54,6.13,8.22,13.68,8.22c7.56,0,13.68-3.68,13.68-8.22
			C241.87,15.46,235.75,11.78,228.19,11.78z M228.19,24.23c-3.67,0-6.65-1.89-6.65-4.22c0-2.33,2.98-4.22,6.65-4.22
			s6.65,1.89,6.65,4.22C234.83,22.33,231.86,24.23,228.19,24.23z"/>
		<g>
			<path class="st0" d="M157.27,11.24v26.98h-19.91c-0.47,0-0.84-0.38-0.84-0.84l-0.01,0v-7.9h-6.75v8.25h0.21l-0.21,0.01
				c0,2.19,1.71,3.97,3.86,4.1v0.04h23.65v0.02h6.75V11.24H157.27z"/>
			<g>
				<polyline class="st0" points="142.78,14.92 151.28,14.92 151.28,11.22 126.73,11.22 126.73,14.92 135.19,14.92 				"/>
				<path class="st0" d="M135.2,14.14c-0.7,4.47-5.24,7.99-9.71,8.66l-0.02,4.72c7.67,0,14.98-5.86,15.69-13.35"/>
				<path class="st0" d="M142.62,14.14c0.7,4.47,5.24,7.99,9.71,8.66l0.02,4.72c-7.67,0-14.99-5.86-15.69-13.35"/>
			</g>
		</g>
	</g>
	<g>
		<path class="st0" d="M84.2,51.67h2.08c0.92,0,2.38,0.2,2.38,2.65c0,1.36-0.59,2.79-2.35,2.79H84.2V51.67z M82.08,58.53h4.49
			c3.42,0,4.31-2.56,4.31-4.34c0-1.57-0.72-3.95-4.22-3.95h-4.57V58.53z"/>
		<path class="st0" d="M100.86,52.11h0.03l1.28,3.28h-2.64L100.86,52.11z M98.96,56.82h3.82l0.66,1.71h2.35l-3.65-8.29h-2.5
			l-3.7,8.29h2.28L98.96,56.82z"/>
		<path class="st0" d="M119.64,51.71h-5.5v1.75h5.05v1.47h-5.05v2.14h5.74v1.47h-7.87v-8.29h7.62V51.71z"/>
		<path class="st0" d="M132.38,56.13c0,1.75-1.14,2.6-3.21,2.6c-3.45,0-3.45-1.75-3.45-3.33h2.03c0,1.31,0.12,1.94,1.27,1.94
			c1.13,0,1.21-0.58,1.21-1.21v-5.89h2.16V56.13z"/>
		<path class="st0" d="M141.33,58.53h-2.16v-8.29h2.16V58.53z"/>
		<path class="st0" d="M154.51,50.24h2.03v8.29h-2.17l-4.23-5.91h-0.03v5.91h-2.03v-8.29h2.29l4.11,5.77h0.03V50.24z"/>
		<path class="st0" d="M178.77,55.62c0,2.18-1.65,3.11-4.26,3.11c-0.95,0-2.36-0.18-3.29-1c-0.56-0.51-0.78-1.18-0.81-2.01v-5.48
			h2.21v5.37c0,1.15,0.83,1.66,1.84,1.66c1.48,0,2.09-0.58,2.09-1.58v-5.45h2.21V55.62z"/>
		<path class="st0" d="M192.06,50.24h2.03v8.29h-2.17l-4.23-5.91h-0.03v5.91h-2.03v-8.29h2.29l4.11,5.77h0.03V50.24z"/>
		<path class="st0" d="M202.97,58.53h-2.16v-8.29h2.16V58.53z"/>
		<path class="st0" d="M215.84,50.24h2.25l-3.52,8.29h-2.06l-3.49-8.29h2.32l2.22,6.28h0.03L215.84,50.24z"/>
		<path class="st0" d="M231.9,51.71h-5.5v1.75h5.05v1.47h-5.05v2.14h5.74v1.47h-7.87v-8.29h7.62V51.71z"/>
		<path class="st0" d="M240.86,53.89v-2.22h2.71c1.27,0,1.52,0.65,1.52,1.09c0,0.82-0.55,1.13-1.68,1.13H240.86z M238.74,58.53h2.12
			v-3.25h2.24c1.6,0,1.69,0.44,1.69,1.57c0,0.85,0.09,1.28,0.23,1.68h2.39V58.3c-0.46-0.14-0.46-0.44-0.46-1.65
			c0-1.55-0.46-1.8-1.31-2.1c1.04-0.28,1.61-1.06,1.61-1.97c0-0.72-0.5-2.34-3.26-2.34h-5.25V58.53z"/>
		<path class="st0" d="M255.55,55.97c0.01,0.46,0.3,1.33,2.19,1.33c1.02,0,2.16-0.2,2.16-1.07c0-0.64-0.78-0.82-1.87-1.02L256.92,55
			c-1.68-0.31-3.3-0.61-3.3-2.43c0-0.92,0.62-2.54,3.99-2.54c3.18,0,4.03,1.66,4.05,2.67h-2.08c-0.06-0.37-0.23-1.24-2.12-1.24
			c-0.82,0-1.81,0.24-1.81,0.99c0,0.64,0.67,0.78,1.1,0.86l2.52,0.49c1.41,0.28,2.72,0.74,2.72,2.22c0,2.49-3.18,2.71-4.08,2.71
			c-3.78,0-4.43-1.74-4.43-2.76H255.55z"/>
		<path class="st0" d="M270.45,58.53h-2.16v-8.29h2.16V58.53z"/>
		<path class="st0" d="M281.72,58.53h-2.16v-6.82h-3.13v-1.47h8.43v1.47h-3.13V58.53z"/>
		<path class="st0" d="M295.82,58.53h-2.16V55.4l-3.58-5.16h2.55l2.15,3.6l2.05-3.6h2.45l-3.46,5.18V58.53z"/>
	</g>
	<g>
		<g>
			<path class="st0" d="M58.04,26.46l0.05-0.26c-2.98-0.23-6.29-2.68-6.29-2.68l0.16-0.03l0.13-0.22l-0.08-0.1
				c0,0-6.29,1.23-18.83,1.24c-12.54,0-18.83-1.24-18.83-1.24l-0.08,0.1l0.13,0.22l0.16,0.03c0,0-3.32,2.45-6.29,2.68l0.05,0.26
				l-0.52,0.09l0.2,0.33c0,0,2.04,0.4,6.3,0.35h18.82h0.03h0.05h0.03h18.82c4.26,0.04,6.3-0.35,6.3-0.35l0.2-0.33L58.04,26.46z"/>
			<path class="st0" d="M33.19,28.09l-22.25-0.02c0,0,0.8,1.34,2.97,2.07h19.2h0.14h19.2c2.17-0.73,2.97-2.07,2.97-2.07L33.19,28.09
				z"/>
			<rect x="13.51" y="30.98" class="st0" width="39.29" height="1.26"/>
			<rect x="11.04" y="42.1" class="st0" width="44.12" height="1.11"/>
			<path class="st0" d="M16.39,40.26c0,0-0.14,0-0.14,0l0.03-0.17c0.54-3.4,0.1-7.11,0.1-7.15l-0.02-0.2h-0.2h-0.92h-0.19L15,32.93
				c-0.52,2.88-0.06,6.98-0.04,7.15l0.02,0.18h-0.13l-0.06,0.14c-0.2,0.47-0.03,1.09-0.01,1.15l0.05,0.17H15h1.25h0.15l0.06-0.14
				c0.27-0.65,0-1.17-0.01-1.19L16.39,40.26z"/>
			<path class="st0" d="M51.63,40.39l-0.06-0.13h-0.13l0.02-0.18c0.02-0.17,0.48-4.28-0.04-7.15l-0.03-0.19h-0.19h-0.92h-0.2
				l-0.02,0.2c0,0.04-0.45,3.75,0.1,7.15l0.03,0.17H50l-0.05,0.16c-0.02,0.07-0.22,0.72,0.01,1.18l0.06,0.13h0.14h1.25h0.14
				l0.06-0.13C51.63,41.56,51.9,41,51.63,40.39z"/>
			<path class="st0" d="M20.46,33.41h-0.61h-0.11v0.12v7.36v0.12h0.11h0.6c1.05,0,1.44-2.33,1.44-3.9
				C21.88,34.93,21.29,33.41,20.46,33.41z M20.47,34.1c0.33,0.11,0.66,1.18,0.66,3.07c0,1.92-0.33,3.08-0.66,3.15V34.1z"/>
			<path class="st0" d="M26.6,33.47l-0.01-0.1h-0.1h-0.65h-0.1l-0.01,0.1l-1,7.36l-0.02,0.13h0.13h0.49h0.1l0.01-0.1l0.28-1.94h0.84
				l0.26,1.94l0.01,0.1h0.1h0.51h0.13l-0.02-0.13L26.6,33.47z M26.14,35.35l0.36,3.02h-0.74L26.14,35.35z"/>
			<polygon class="st0" points="31.45,40.23 31.45,37.4 32.22,37.4 32.33,37.4 32.33,37.28 32.33,36.9 32.33,36.79 32.22,36.79 
				31.45,36.79 31.45,34.06 32.34,34.06 32.46,34.06 32.46,33.95 32.46,33.47 32.46,33.35 32.34,33.35 30.83,33.35 30.71,33.35 
				30.71,33.47 30.71,40.83 30.71,40.94 30.83,40.94 32.37,40.94 32.49,40.94 32.49,40.83 32.49,40.35 32.49,40.23 32.37,40.23 			
				"/>
			<path class="st0" d="M36.46,33.31h-0.11v0.11v5.43c0,0.98-0.17,1.49-0.33,1.49c-0.11,0-0.31-0.42-0.31-1.42v-0.51V38.3h-0.12
				h-0.48h-0.11v0.11v0.73c0,0.86,0.16,1.45,0.46,1.74c0.16,0.15,0.35,0.22,0.58,0.21c0.81-0.04,0.92-0.59,1.04-2.29
				c0-0.01,0-5.38,0-5.38v-0.11h-0.12H36.46z"/>
			<polygon class="st0" points="40.56,33.39 40.44,33.39 40.44,33.51 40.44,40.87 40.44,40.98 40.56,40.98 41.19,40.98 41.31,40.98 
				41.31,40.87 41.31,33.51 41.31,33.39 41.19,33.39 			"/>
			<polygon class="st0" points="46.57,33.36 46.07,33.36 45.96,33.36 45.96,33.47 45.96,37.58 45.17,33.45 45.15,33.36 45.06,33.36 
				44.61,33.36 44.49,33.36 44.49,33.47 44.49,40.84 44.49,40.95 44.61,40.95 45.1,40.95 45.22,40.95 45.22,40.84 45.22,36.7 
				46.03,40.86 46.05,40.95 46.14,40.95 46.57,40.95 46.68,40.95 46.68,40.84 46.68,33.47 46.68,33.36 			"/>
		</g>
		<g>
			<g>
				<path class="st0" d="M1.88,40.74L1.6,39.41c-0.12-0.59-0.19-1.55,1.37-1.88c0.87-0.18,1.86,0,2.1,1.13l0.28,1.35L1.88,40.74z
					 M6.55,41.17l-0.6-2.87c-0.46-2.19-2.22-2.41-3.36-2.17c-1,0.21-2.43,0.99-1.96,3.23l0.62,2.93L6.55,41.17z"/>
				<path class="st0" d="M1.26,31.22l0-0.02l2.19-0.72l-0.09,1.72L1.26,31.22z M4.27,32.63l0.14-2.5l1.14-0.37l0.08-1.54l-5.54,2.09
					L0,31.95l5.28,2.71l0.08-1.49L4.27,32.63z"/>
				<path class="st0" d="M3.33,20.54l-1.12,3.42l1.08,0.35l1.03-3.14l0.91,0.3l-1.03,3.14l1.33,0.44l1.17-3.57l0.91,0.3l-1.6,4.89
					l-5.15-1.68l1.55-4.74L3.33,20.54z"/>
				<path class="st0" d="M9.19,16.01c0.98,0.6,1.06,1.53,0.34,2.69c-1.19,1.92-2.16,1.31-3.04,0.77l0.69-1.12
					c0.73,0.45,1.12,0.6,1.52-0.04c0.39-0.63,0.1-0.87-0.26-1.09l-3.27-2.03l0.75-1.2L9.19,16.01z"/>
				<path class="st0" d="M12.82,14.15l-0.94,1.06L7.83,11.6l0.94-1.06L12.82,14.15z"/>
				<path class="st0" d="M14.33,5.74l1.06-0.79l3.24,4.34l-1.13,0.85L12.97,8.7l-0.02,0.01l2.31,3.1l-1.06,0.79l-3.24-4.34
					l1.19-0.89l4.41,1.41l0.02-0.01L14.33,5.74z"/>
				<path class="st0" d="M28.51,3.78c0.34,1.39-0.56,2.24-2.22,2.64c-0.61,0.15-1.53,0.25-2.25-0.13c-0.44-0.23-0.68-0.63-0.83-1.15
					l-0.85-3.49l1.4-0.34l0.84,3.42c0.18,0.73,0.79,0.93,1.43,0.77c0.94-0.23,1.24-0.69,1.08-1.33L26.27,0.7l1.4-0.34L28.51,3.78z"
					/>
				<path class="st0" d="M35.35,0.14l1.32,0.05l-0.19,5.42l-1.41-0.05L32.44,1.6l-0.02,0l-0.13,3.86l-1.32-0.05L31.15,0l1.49,0.05
					l2.56,3.86l0.02,0L35.35,0.14z"/>
				<path class="st0" d="M39.85,6.4l-1.38-0.33l1.25-5.27l1.38,0.33L39.85,6.4z"/>
				<path class="st0" d="M47.75,3.63l1.34,0.61l-4.34,3.98l-1.23-0.56l0.16-5.88l1.38,0.63L44.7,6.75l0.02,0.01L47.75,3.63z"/>
				<path class="st0" d="M54.86,9.75l-2.79-2.27l-0.72,0.88l2.56,2.08l-0.6,0.74l-2.56-2.08l-0.89,1.09l2.92,2.37l-0.6,0.74
					l-3.99-3.24l3.42-4.21l3.87,3.14L54.86,9.75z"/>
				<path class="st0" d="M56.72,14.01l1.17-0.85l1.03,1.43c0.49,0.67,0.24,1.05,0.01,1.22c-0.43,0.31-0.81,0.14-1.24-0.45
					L56.72,14.01z M53.44,14.67l0.81,1.12l1.72-1.24l0.86,1.18c0.61,0.85,0.41,1.06-0.19,1.5c-0.45,0.33-0.65,0.54-0.8,0.76
					l0.92,1.27l0.12-0.08c-0.1-0.3,0.06-0.41,0.7-0.88c0.82-0.59,0.78-0.93,0.61-1.5c0.54,0.44,1.18,0.44,1.66,0.09
					c0.38-0.27,1.05-1.17-0.01-2.63l-2.01-2.78L53.44,14.67z"/>
				<path class="st0" d="M59.49,21.26c-0.28,0.12-0.75,0.5-0.31,1.65c0.24,0.63,0.62,1.28,1.16,1.07c0.4-0.15,0.32-0.67,0.19-1.39
					l-0.13-0.73c-0.2-1.1-0.39-2.15,0.72-2.58c0.56-0.21,1.7-0.21,2.48,1.84c0.74,1.94-0.08,2.85-0.7,3.09l-0.48-1.27
					c0.21-0.12,0.71-0.43,0.27-1.59c-0.19-0.5-0.57-1.05-1.03-0.87c-0.4,0.15-0.33,0.59-0.27,0.87l0.28,1.66
					c0.16,0.93,0.18,1.83-0.73,2.18c-1.52,0.58-2.4-1.31-2.61-1.87c-0.88-2.31,0.04-3.11,0.66-3.35L59.49,21.26z"/>
				<path class="st0" d="M59.94,28.92l-0.24-1.39l5.34-0.92L65.28,28L59.94,28.92z"/>
				<path class="st0" d="M60.2,33.94l0.02-1.42l4.46,0.06l0.03-2.05l0.96,0.01l-0.07,5.51l-0.96-0.01l0.03-2.05L60.2,33.94z"/>
				<path class="st0" d="M59.11,40.62l0.36-1.37l1.98,0.52l3.86-1.4l-0.42,1.61l-2.64,0.76l1.94,1.89l-0.41,1.55l-2.7-3.05
					L59.11,40.62z"/>
			</g>
			<path class="st0" d="M6.49,48.48c0.38,0,0.68-0.31,0.68-0.68c0-0.38-0.31-0.68-0.68-0.68c-0.38,0-0.68,0.31-0.68,0.68
				C5.81,48.18,6.11,48.48,6.49,48.48z"/>
			<path class="st0" d="M59.13,48.48c0.38,0,0.68-0.31,0.68-0.68c0-0.38-0.31-0.68-0.68-0.68c-0.38,0-0.68,0.31-0.68,0.68
				C58.45,48.18,58.75,48.48,59.13,48.48z"/>
			<g>
				<path class="st0" d="M16.5,55.32l-1.02,1.26l-0.58-0.47l1.02-1.26l-1.01-0.82l-2.22,2.73l-2.04-1.65
					c-0.07-0.06-0.08-0.16-0.02-0.23l0.02-0.02l1.65-2.03l1.7,1.38l0.45-0.55l-2.7-2.19l-2.11,2.61l0,0
					c-0.02,0.02-0.04,0.04-0.06,0.06c-0.28,0.34-0.22,0.84,0.12,1.11c0.02,0.02,0.05,0.04,0.07,0.05l2.48,2.01l-1.22,1.5l1.02,0.83
					l2.37-2.92l0.58,0.47l-2.37,2.92l1.02,0.83l3.88-4.78L16.5,55.32z"/>
			</g>
			<g>
				<path class="st0" d="M34.9,60.45v1.62h-0.75v-1.62h-1.3v3.52h-2.62c-0.09,0-0.16-0.07-0.16-0.16l0-0.03v-2.61h2.18v-0.71h-3.48
					v3.36l0,0c0,0.03,0,0.06,0,0.09c0,0.44,0.35,0.79,0.79,0.79c0.03,0,0.06,0,0.09-0.01h3.19v1.93h1.31v-3.76h0.75v3.76h1.31v-6.16
					H34.9z"/>
			</g>
			<g>
				<path class="st0" d="M55.78,55.52l-2.46-2.87l0,0c-0.27-0.32-0.75-0.37-1.08-0.12l0-0.01l-4.45,3.8l0.46,0.54l3.9-3.33
					c0.07-0.06,0.17-0.05,0.23,0.02l0,0l2.41,2.82l-0.74,0.63l-1.37-1.61l-0.99,0.84l1.37,1.61l-0.69,0.59L51,56.82l-0.99,0.84
					l1.37,1.61l-1.01,0.87l0.46,0.54l6.08-5.2l-0.46-0.54L55.78,55.52z"/>
			</g>
			<g>
				<g>
					<path class="st0" d="M47.07,61.53c-0.15-0.39-0.59-0.59-0.98-0.46l0-0.01l-5.45,2.16l0.26,0.66l4.78-1.9
						c0.08-0.03,0.18,0.01,0.21,0.09l0,0l0.66,1.66l1.21-0.48L47.07,61.53"/>
					<polygon class="st0" points="46.73,58.47 45.91,58.79 45.44,57.52 44.24,58 45.45,61.07 46.66,60.59 46.17,59.46 47,59.13 
											"/>
					<path class="st0" d="M42.71,59.37l1.03-0.41l-0.26-0.66l-1.99,0.79l-0.2-0.51l-1.21,0.48l0.2,0.51c0,0,0,0,0,0l-1.99,0.79
						l0.26,0.66l1.21-0.48"/>
				</g>
				<path class="st0" d="M40.93,59.41c-1.35,0.54-2.19,1.63-1.86,2.44c0.32,0.81,1.68,1.04,3.03,0.5c1.35-0.54,2.19-1.63,1.86-2.44
					C43.64,59.1,42.28,58.88,40.93,59.41z M41.81,61.64c-0.66,0.26-1.32,0.13-1.49-0.28c-0.17-0.42,0.23-0.97,0.89-1.23
					c0.66-0.26,1.32-0.13,1.49,0.28C42.87,60.83,42.47,61.38,41.81,61.64z"/>
			</g>
			<g>
				<path class="st0" d="M25,59.54l-1.74,4.89l-3.61-1.28c-0.08-0.03-0.13-0.12-0.1-0.21l0,0l0.51-1.43l-1.22-0.43l-0.53,1.5
					l0.04,0.01l-0.04-0.01c-0.14,0.4,0.05,0.83,0.44,0.99l0,0.01l4.29,1.52l0,0l1.22,0.43l1.97-5.56L25,59.54z"/>
				<g>
					<polyline class="st0" points="22.13,59.28 23.67,59.82 23.91,59.15 19.46,57.57 19.22,58.24 20.76,58.79 					"/>
					<path class="st0" d="M20.81,58.65c-0.41,0.76-1.46,1.11-2.32,0.94l-0.31,0.85c1.39,0.49,3.09-0.1,3.71-1.41"/>
					<path class="st0" d="M22.15,59.13c-0.16,0.85,0.44,1.79,1.2,2.2l-0.3,0.86c-1.39-0.49-2.34-2.03-1.99-3.43"/>
				</g>
			</g>
		</g>
		<g>
			<path class="st0" d="M22.81,48.43h-0.36v-1.74h1.24V47h-0.87v0.4h0.76v0.31h-0.76V48.43z"/>
			<path class="st0" d="M24.33,47.56c0-0.49,0.28-0.61,0.47-0.61c0.2,0,0.47,0.12,0.47,0.61c0,0.49-0.28,0.61-0.47,0.61
				C24.61,48.17,24.33,48.05,24.33,47.56z M23.97,47.56c0,0.82,0.6,0.91,0.84,0.91c0.23,0,0.84-0.1,0.84-0.91
				c0-0.82-0.61-0.92-0.84-0.92C24.57,46.64,23.97,46.74,23.97,47.56z"/>
			<path class="st0" d="M27.44,47.82c0,0.46-0.28,0.65-0.71,0.65c-0.16,0-0.4-0.04-0.55-0.21c-0.09-0.11-0.13-0.25-0.14-0.42v-1.15
				h0.37v1.13c0,0.24,0.14,0.35,0.31,0.35c0.25,0,0.35-0.12,0.35-0.33v-1.15h0.37V47.82z"/>
			<path class="st0" d="M28.98,46.69h0.34v1.74h-0.36l-0.71-1.24h0v1.24H27.9v-1.74h0.38l0.69,1.21h0V46.69z"/>
			<path class="st0" d="M30.14,46.99h0.35c0.15,0,0.4,0.04,0.4,0.56c0,0.29-0.1,0.59-0.39,0.59h-0.35V46.99z M29.79,48.43h0.75
				c0.57,0,0.72-0.54,0.72-0.91c0-0.33-0.12-0.83-0.71-0.83h-0.77V48.43z"/>
			<path class="st0" d="M32.93,47h-0.92v0.37h0.85v0.31h-0.85v0.45h0.96v0.31h-1.32v-1.74h1.28V47z"/>
			<path class="st0" d="M33.75,46.99h0.35c0.15,0,0.4,0.04,0.4,0.56c0,0.29-0.1,0.59-0.39,0.59h-0.35V46.99z M33.39,48.43h0.75
				c0.57,0,0.72-0.54,0.72-0.91c0-0.33-0.12-0.83-0.71-0.83h-0.77V48.43z"/>
			<path class="st0" d="M36.38,48.43h-0.36v-1.74h0.36V48.43z"/>
			<path class="st0" d="M37.9,46.69h0.34v1.74h-0.36l-0.71-1.24h0v1.24h-0.34v-1.74h0.38l0.69,1.21h0V46.69z"/>
			<path class="st0" d="M39.49,47.01h0.05c0.33,0,0.41-0.17,0.42-0.3h0.28v1.72H39.9v-1.18h-0.41V47.01z"/>
			<path class="st0" d="M41.2,47.28c0-0.25,0.16-0.29,0.24-0.29c0.17,0,0.26,0.12,0.26,0.32c0,0.2-0.13,0.29-0.25,0.29
				C41.32,47.59,41.2,47.54,41.2,47.28z M40.89,48.03c0.03,0.27,0.24,0.44,0.53,0.44c0.31,0,0.62-0.22,0.62-0.88
				c0-0.24-0.01-0.88-0.6-0.88c-0.34,0-0.59,0.2-0.59,0.62c0,0.29,0.19,0.54,0.52,0.54c0.12,0,0.25-0.03,0.33-0.15l0,0
				c0,0.36-0.14,0.48-0.28,0.48c-0.1,0-0.18-0.05-0.2-0.17v0H40.89z"/>
			<path class="st0" d="M42.67,47.28c0-0.25,0.16-0.29,0.24-0.29c0.17,0,0.26,0.12,0.26,0.32c0,0.2-0.13,0.29-0.25,0.29
				C42.79,47.59,42.67,47.54,42.67,47.28z M42.36,48.03c0.03,0.27,0.24,0.44,0.53,0.44c0.31,0,0.62-0.22,0.62-0.88
				c0-0.24-0.01-0.88-0.6-0.88c-0.34,0-0.59,0.2-0.59,0.62c0,0.29,0.19,0.54,0.52,0.54c0.12,0,0.25-0.03,0.33-0.15l0,0
				c0,0.36-0.14,0.48-0.28,0.48c-0.1,0-0.18-0.05-0.2-0.17v0H42.36z"/>
			<path class="st0" d="M43.89,47.01h0.05c0.33,0,0.41-0.17,0.42-0.3h0.28v1.72h-0.34v-1.18h-0.41V47.01z"/>
		</g>
	</g>
</g>
</svg>
