<?xml version="1.0" encoding="utf-8"?>
<!-- Generator: Adobe Illustrator 26.3.1, SVG Export Plug-In . SVG Version: 6.00 Build 0)  -->
<svg version="1.1" id="Layer_1" xmlns="http://www.w3.org/2000/svg" xmlns:xlink="http://www.w3.org/1999/xlink" x="0px" y="0px"
	 viewBox="0 0 595.28 87" style="enable-background:new 0 0 595.28 87;" xml:space="preserve">
<style type="text/css">
	.st0{fill:#4D4D4D;}
	.st1{fill:#2186B3;}
	.st2{fill:#00B9EF;}
	.st3{fill:url(#SVGID_1_);}
	.st4{fill:url(#SVGID_00000005950967951453142710000002842911914862888337_);}
	.st5{fill:url(#SVGID_00000183928945203399839480000018270976531201138358_);}
</style>
<g>
	<g>
		<polygon class="st0" points="317.45,33.62 317.45,38.39 310.27,38.39 310.27,55.42 304.5,55.42 304.5,17.48 310.27,17.48 
			310.27,33.62 		"/>
		<path class="st0" d="M300.69,23.25h-12.05v-5.83h-5.77v5.83h-12.05v4.6h5.29c-2.04,2.29-3.29,5.3-3.29,8.6
			c0,7.13,5.8,12.94,12.94,12.94c7.13,0,12.94-5.8,12.94-12.94c0-3.3-1.24-6.32-3.29-8.6h5.29V23.25z M285.75,44.38
			c-4.37,0-7.93-3.56-7.93-7.93c0-4.37,3.56-7.93,7.93-7.93c4.37,0,7.93,3.56,7.93,7.93C293.68,40.82,290.12,44.38,285.75,44.38z"/>
		<path class="st0" d="M310.97,68.02H284c-4.78,0-8.68-4.01-8.68-8.93v-6.09h5.01v6.09c0,2.16,1.65,3.92,3.67,3.92h26.98V68.02z"/>
	</g>
	<g>
		<g>
			<path class="st0" d="M508.16,46.85c-5.6-1.96-9.7-6-11.94-10.93c-2.19,5.55-6.39,9.86-12.33,11.99l-3.14-4.48
				c8.13-2.75,12.44-9.58,12.44-16.98v-5.89h5.83v5.94c0,6.73,4.37,13.11,12.05,15.75L508.16,46.85z M527.95,32.61v4.76h-7.17v17.37
				H515V17.42h5.77v15.19H527.95z"/>
		</g>
		<path class="st0" d="M522.13,68.02H495.6c-4.78,0-8.68-4.01-8.68-8.93v-6.09h5.01v6.09c0,2.16,1.65,3.92,3.67,3.92h26.53V68.02z"
			/>
	</g>
	<path class="st0" d="M370.55,42.18v-4.65h-7.02c0.62-3.35,0.95-7.9,1.13-11.35c0.08-1.63-0.51-3.24-1.64-4.43
		c-1.13-1.19-2.71-1.87-4.35-1.87h-29.64v5.01h29.64c0.37,0,0.61,0.19,0.72,0.31c0.11,0.11,0.29,0.36,0.27,0.72
		c-0.26,5.12-0.7,9.21-1.23,11.6H324.7v4.65h18.95v8.29h-17.3v4.65h32.52c0.78,0,1.42,0.64,1.42,1.42v11.47h5.77V56.15
		c0-3.14-2.54-5.68-5.68-5.68h-10.9v-8.29H370.55z"/>
	<g>
		<path class="st0" d="M423.15,51.72h-20.23v16.42h-5.77V51.72h-19.9v-4.65h45.9V51.72z"/>
		<path class="st0" d="M413.83,20.44v6.5h-27.26v-6.22h-5.01v17.01c0,2.95,2.55,5.34,5.68,5.34h25.91c3.13,0,5.68-2.4,5.68-5.34
			V20.44H413.83z M413.16,38.07h-25.91c-0.43,0-0.67-0.25-0.67-0.34v-5.78h27.26v5.78C413.83,37.82,413.59,38.07,413.16,38.07z"/>
	</g>
	<g>
		<path class="st0" d="M475.35,41.92v4.71h-45.73v-4.71h19.95v-5.04h-11.45c-1.57,0-2.84-1.27-2.84-2.84V22.56
			c0-1.57,1.27-2.84,2.84-2.84h31.63v4.6h-27.78c-0.78,0-1.42,0.64-1.42,1.42v5.06c0,0.78,0.64,1.42,1.42,1.42h28.11v4.65h-14.74
			v5.04H475.35z"/>
		<path class="st0" d="M452.48,71.58c-6.58,0-11.94-5.36-11.94-11.94s5.36-11.94,11.94-11.94s11.94,5.36,11.94,11.94
			S459.06,71.58,452.48,71.58z M452.48,52.71c-3.82,0-6.93,3.11-6.93,6.93c0,3.82,3.11,6.93,6.93,6.93c3.82,0,6.93-3.11,6.93-6.93
			C459.41,55.81,456.3,52.71,452.48,52.71z"/>
	</g>
	<g>
		<path class="st0" d="M547,48.52c-4.82,0.22-10.42,0.28-14.4,0.28l-0.73-4.71c9.3-0.06,21.75-0.17,32.45-1.51l0.45,4.15
			c-4.26,0.73-8.39,1.19-12,1.46v7.75H547V48.52z M568.31,49.19V17.42h5.77v40.51h-5.77v-4.21h-7.92v-4.54H568.31z"/>
		<path class="st0" d="M574.08,68.02h-29.95c-4.93,0-8.93-4.01-8.93-8.93v-6.09h5.01v6.09c0,2.16,1.76,3.92,3.92,3.92h29.95V68.02z"
			/>
		<path class="st0" d="M548.85,41.74c-6.19,0-11.23-5.04-11.23-11.23s5.04-11.23,11.23-11.23c6.19,0,11.23,5.04,11.23,11.23
			S555.05,41.74,548.85,41.74z M548.85,24.28c-3.43,0-6.23,2.79-6.23,6.23c0,3.43,2.79,6.23,6.23,6.23c3.43,0,6.23-2.79,6.23-6.23
			C555.08,27.07,552.28,24.28,548.85,24.28z"/>
	</g>
</g>
<g>
	<path class="st1" d="M143.48,71.65c-1.03,0-2.07-0.36-2.91-1.1l-18.2-15.99c-1.38-1.21-1.86-3.15-1.22-4.86
		c0.65-1.72,2.29-2.85,4.12-2.85h2.31c6.33,0,11.49-5.15,11.49-11.49c0-6.33-5.15-11.49-11.49-11.49h-20.52
		c-2.43,0-4.41-1.97-4.41-4.41s1.97-4.41,4.41-4.41h20.52c11.19,0,20.3,9.11,20.3,20.3c0,8.48-5.23,15.76-12.63,18.79l11.13,9.77
		c1.83,1.61,2.01,4.39,0.4,6.22C145.92,71.14,144.7,71.65,143.48,71.65z"/>
	<path class="st1" d="M107.07,71.8c-2.43,0-4.41-1.97-4.41-4.41V48.46c0-9.55,7.77-17.31,17.31-17.31h5.04
		c2.43,0,4.41,1.97,4.41,4.41c0,2.43-1.97,4.41-4.41,4.41h-5.04c-4.69,0-8.5,3.81-8.5,8.5v18.93
		C111.47,69.83,109.5,71.8,107.07,71.8z"/>
	<path class="st1" d="M196.13,71.8h-25.05c-8.69,0-15.76-7.07-15.76-15.76V30.96c0-8.69,7.07-15.76,15.76-15.76h25.05
		c2.43,0,4.41,1.97,4.41,4.41s-1.97,4.41-4.41,4.41h-25.05c-3.83,0-6.95,3.12-6.95,6.95v25.08c0,3.83,3.12,6.95,6.95,6.95h25.05
		c2.43,0,4.41,1.97,4.41,4.41S198.56,71.8,196.13,71.8z"/>
	<path class="st1" d="M196.13,47.91h-20.48c-2.43,0-4.41-1.97-4.41-4.41c0-2.43,1.97-4.41,4.41-4.41h20.48
		c2.43,0,4.41,1.97,4.41,4.41C200.54,45.93,198.56,47.91,196.13,47.91z"/>
	<path class="st2" d="M248.17,43.5c3.2-2.99,5.2-7.24,5.2-11.95c0-9.02-7.34-16.35-16.35-16.35h-24.46c-2.43,0-4.41,1.97-4.41,4.41
		s1.97,4.41,4.41,4.41h24.46c4.16,0,7.54,3.38,7.54,7.54s-3.38,7.54-7.54,7.54h-24.46c-2.43,0-4.41,1.97-4.41,4.41
		c0,2.43,1.97,4.41,4.41,4.41h24.46c4.16,0,7.54,3.38,7.54,7.54s-3.38,7.54-7.54,7.54h-24.46c-2.43,0-4.41,1.97-4.41,4.41
		s1.97,4.41,4.41,4.41h24.46c9.02,0,16.35-7.34,16.35-16.35C253.38,50.74,251.37,46.49,248.17,43.5z"/>
</g>
<g>
	<linearGradient id="SVGID_1_" gradientUnits="userSpaceOnUse" x1="77.9006" y1="62.5637" x2="59.6614" y2="7.4619">
		<stop  offset="0.0396" style="stop-color:#002C76"/>
		<stop  offset="0.1192" style="stop-color:#00377E"/>
		<stop  offset="0.2811" style="stop-color:#005495"/>
		<stop  offset="0.5087" style="stop-color:#0085C0"/>
		<stop  offset="0.5577" style="stop-color:#0090C9"/>
		<stop  offset="0.8802" style="stop-color:#00B1CF"/>
		<stop  offset="0.9489" style="stop-color:#1BB8CE"/>
	</linearGradient>
	<path class="st3" d="M54.97,9.45c-3.07,0-6.11,0.42-9.05,1.23c3.72,0.47,7.31,1.74,10.54,3.73c4.29,2.65,7.72,6.47,9.9,11.04
		c3.63,7.6,3.36,16.54-0.65,23.97c-2.57,4.76-6.23,8.04-8.19,9.69c3.67,2.26,7.85,3.45,12.21,3.45c6.63,0,12.94-2.83,17.37-7.77
		c1.28-3.63,1.92-7.43,1.92-11.3C89.02,24.73,73.74,9.45,54.97,9.45z"/>
	
		<linearGradient id="SVGID_00000096037720388723211940000000483520856117699498_" gradientUnits="userSpaceOnUse" x1="37.7518" y1="43.2734" x2="69.2362" y2="74.5263">
		<stop  offset="0" style="stop-color:#002C76"/>
		<stop  offset="0.0927" style="stop-color:#00377E"/>
		<stop  offset="0.2809" style="stop-color:#005495"/>
		<stop  offset="0.5456" style="stop-color:#0085C0"/>
		<stop  offset="0.6026" style="stop-color:#0090C9"/>
		<stop  offset="0.8881" style="stop-color:#00B1CF"/>
		<stop  offset="0.9489" style="stop-color:#1BB8CE"/>
	</linearGradient>
	<path style="fill:url(#SVGID_00000096037720388723211940000000483520856117699498_);" d="M53.97,60.34
		c-8.06-6.23-11.83-13.04-11.86-18.63c-0.02-2.71,0.84-5.24,2.28-7.31c-2.23,1.14-4.29,2.64-6.09,4.49
		c-4.29,4.38-6.65,10.17-6.65,16.31c0,8.52,4.64,16.35,12.11,20.46c3.61,1.26,7.39,1.9,11.22,1.9c11.91,0,22.84-6.27,28.96-16.14
		c-3.39,2.24-8.78,4.24-14.2,4.16C62.34,65.47,57.12,62.77,53.97,60.34z"/>
	
		<linearGradient id="SVGID_00000154403389045642816880000008085239773517807263_" gradientUnits="userSpaceOnUse" x1="57.1107" y1="22.8071" x2="23.7742" y2="51.0505">
		<stop  offset="0" style="stop-color:#002C76"/>
		<stop  offset="0.0918" style="stop-color:#00377E"/>
		<stop  offset="0.2783" style="stop-color:#005495"/>
		<stop  offset="0.5405" style="stop-color:#0085C0"/>
		<stop  offset="0.597" style="stop-color:#0090C9"/>
		<stop  offset="0.8871" style="stop-color:#00B1CF"/>
		<stop  offset="0.9489" style="stop-color:#1BB8CE"/>
	</linearGradient>
	<path style="fill:url(#SVGID_00000154403389045642816880000008085239773517807263_);" d="M36.14,36.78
		c4.83-4.93,10.77-8.13,18.28-8.18c4.56-0.03,9.12,2.64,11.4,6.23c-0.23-2.77-0.96-5.52-2.19-8.08
		c-3.85-8.06-13.87-15.28-25.5-12.84C27.51,19.96,20.92,31.28,20.92,43.5c0,10.06,4.45,19.39,11.77,25.74
		c-2.6-4.13-4.05-8.98-4.05-14.05C28.63,48.27,31.3,41.73,36.14,36.78z"/>
</g>
</svg>
