<?xml version="1.0" encoding="utf-8"?>
<!-- Generator: Adobe Illustrator 25.2.3, SVG Export Plug-In . SVG Version: 6.00 Build 0)  -->
<svg version="1.1" id="Layer_1" xmlns="http://www.w3.org/2000/svg" xmlns:xlink="http://www.w3.org/1999/xlink" x="0px" y="0px"
	 viewBox="0 0 60 60" style="enable-background:new 0 0 60 60;" xml:space="preserve">
<style type="text/css">
	.st0{fill:#1D1D1B;}
	.st1{fill-rule:evenodd;clip-rule:evenodd;fill:#00B0EA;}
	.st2{fill-rule:evenodd;clip-rule:evenodd;fill:#005CA8;}
	.st3{fill-rule:evenodd;clip-rule:evenodd;}
	.st4{fill:#FFFFFF;}
</style>
<g>
	<g>
		<path class="st0" d="M30.1,0c-16.6,0-30,13.4-30,30c0,16.6,13.4,30,30,30c16.6,0,30-13.4,30-30C60.1,13.4,46.7,0,30.1,0z
			 M30.1,59.1C14,59.1,0.9,46.1,0.9,30C0.9,13.8,14,0.8,30.1,0.8c16.1,0,29.2,13.1,29.2,29.2C59.3,46.1,46.2,59.1,30.1,59.1z"/>
		<path class="st0" d="M30.1,10.8C19.6,10.8,11,19.4,11,30c0,10.6,8.6,19.1,19.1,19.1S49.2,40.5,49.2,30
			C49.2,19.4,40.7,10.8,30.1,10.8z M30.1,48.6c-10.3,0-18.7-8.4-18.7-18.7c0-10.3,8.4-18.7,18.7-18.7S48.8,19.6,48.8,30
			C48.8,40.3,40.4,48.6,30.1,48.6z"/>
		<g>
			<path class="st0" d="M5.8,30.9c0.6,0,1.1-0.5,1.1-1.1c0-0.6-0.5-1.1-1.1-1.1c-0.6,0-1.1,0.5-1.1,1.1C4.7,30.4,5.2,30.9,5.8,30.9z
				"/>
			<path class="st0" d="M55,30.9c0.6,0,1.1-0.5,1.1-1.1c0-0.6-0.5-1.1-1.1-1.1c-0.6,0-1.1,0.5-1.1,1.1C53.9,30.4,54.4,30.9,55,30.9z
				"/>
			<path class="st0" d="M8.7,35l-0.1-0.6l0.2,0l0.5,1.9l-0.2,0l-0.1-0.6l-4.1,1L5,37.3l-0.2,0l-0.5-1.8l0.2,0L4.7,36L8.7,35z"/>
			<path class="st0" d="M9.5,37.5L9.2,37l0.1-0.1l0.6,1.3l-2,3.4l0,0l2.8-1.2l-0.3-0.6l0.1-0.1l0.6,1.3L11,41l-0.2-0.5l-4,1.8
				l-0.1-0.1l2.7-4.5l0,0l-3.7,1.6L6,40l-0.1,0.1l-0.6-1.3l0.1-0.1l0.2,0.5L9.5,37.5z"/>
			<path class="st0" d="M13.2,44l-0.3-0.5l0.1-0.1l1.1,1.5L14,45.1l-0.4-0.5l-3.3,2.5l0.4,0.5l-0.1,0.1l-1.1-1.5l0.1-0.1l0.3,0.5
				l1.7-1.3l-1.2-1.6L8.7,45L9,45.5l-0.1,0.1l-1.1-1.5L7.9,44l0.4,0.5l3.3-2.5l-0.4-0.5l0.1-0.1l1.1,1.5l-0.1,0.1L12,42.5l-1.6,1.2
				l1.2,1.6L13.2,44z"/>
			<path class="st0" d="M14.1,48.6l-0.8-0.7l1.5-0.8l0,0L14.1,48.6z M11.7,48.6l-0.4-0.4l-0.1,0.1l1.1,0.9l0.1-0.1l-0.5-0.4l1.3-0.8
				l0.9,0.8l-0.6,1.3l-0.5-0.4l-0.1,0.1l1.5,1.4l0.1-0.1L14,50.6l1.9-4.3l-0.1-0.1L11.7,48.6z"/>
			<path class="st0" d="M19.5,49.3L18.9,49l0.1-0.1l1.8,0.8l-0.1,0.1l-0.6-0.3l-1.2,2.7c-0.3,0.7-0.3,1.2,0.6,1.6
				c1.1,0.5,1.4,0.1,1.7-0.6l1.2-2.7l-0.6-0.3l0.1-0.1l1.3,0.6l-0.1,0.1l-0.5-0.2l-1.3,2.8c-0.4,0.8-0.8,1.2-2.1,0.6
				c-1.4-0.6-1.4-1.1-1-1.9L19.5,49.3z"/>
			<path class="st0" d="M24.4,51.3l-0.6-0.1l0-0.2l1.4,0.3l1.6,3.6l0,0l0.6-3l-0.7-0.1l0-0.2l1.4,0.3l0,0.2l-0.6-0.1l-0.8,4.3
				l-0.1,0l-2.1-4.8l0,0l-0.8,4l0.7,0.1l0,0.2L23,55.4l0-0.2l0.6,0.1L24.4,51.3z"/>
			<path class="st0" d="M29.8,52l-0.6,0l0-0.2l1.9,0V52l-0.6,0l0,4.2l0.6,0l0,0.2l-1.9,0v-0.2l0.6,0L29.8,52z"/>
			<path class="st0" d="M32.2,51.9L31.7,52l0-0.2l1.9-0.3l0,0.2L33,51.8l1.6,3.1l0,0l0.6-3.5l-0.6,0.1l0-0.2l1.3-0.2l0,0.2l-0.5,0.1
				L34.5,56l-0.1,0L32.2,51.9z"/>
			<path class="st0" d="M36.9,50.9l-0.6,0.2L36.3,51l3.4-1.3l0.5,1.3L40.1,51c-0.6-1-0.9-1-2.2-0.5l-0.3,0.1l0.7,1.8l0.3-0.1
				c0.7-0.3,0.6-0.5,0.4-1.2l0.2-0.1l0.8,2l-0.2,0.1c-0.3-0.7-0.4-0.9-1.1-0.6l-0.3,0.1l0.8,1.9l0.9-0.4c0.9-0.4,1-0.9,0.8-1.8
				l0.2-0.1l0.5,1.5L38,55.2l-0.1-0.1l0.6-0.2L36.9,50.9z"/>
			<path class="st0" d="M41.9,48.5l0.3-0.2c0.5-0.4,0.9-0.2,1.2,0.3c0.3,0.4,0.4,0.9-0.1,1.2l-0.4,0.2L41.9,48.5z M43.6,52.4
				l-0.5,0.3l0.1,0.1l1.6-1l-0.1-0.1L44.2,52L43,50.3l0.3-0.2c0.7-0.4,0.9-0.3,1.4,0.4c0.5,0.7,0.7,0.9,1.4,0.5l0.4-0.3l-0.1-0.1
				l-0.1,0.1c-0.3,0.2-0.5,0-0.9-0.6c-0.6-0.8-0.9-0.8-1.8-0.3l0,0c0.5-0.4,0.7-0.8,0.3-1.4c-0.5-0.8-1.1-0.6-1.7-0.2l-1.5,1
				l0.1,0.1l0.5-0.3L43.6,52.4z"/>
			<path class="st0" d="M46.5,48.7l0.1-0.1c0.5,0.5,1.4,0.6,1.9,0.1c0.4-0.4,0.6-0.9,0.1-1.4c-0.9-0.9-2.3,1.2-3.4,0.1
				c-0.6-0.6-0.4-1.4,0.1-1.9c0.3-0.3,0.7-0.5,1-0.6l0.7,0.7l-0.1,0.1c-0.6-0.4-1.1-0.4-1.5,0c-0.3,0.3-0.4,0.8-0.1,1.1
				c0.8,0.8,2.2-1.2,3.4,0c0.6,0.6,0.4,1.5-0.2,2.1c-0.3,0.3-0.7,0.6-1.2,0.8L46.5,48.7z"/>
			<path class="st0" d="M47.6,43.3l-0.4,0.5l-0.1-0.1l1.1-1.5l0.1,0.1L48,42.8l3.4,2.5l0.4-0.5l0.1,0.1l-1.1,1.5l-0.1-0.1l0.4-0.5
				L47.6,43.3z"/>
			<path class="st0" d="M49.7,40.2l-0.2,0.5c-0.3,0.6,0.2,1.1,0.7,1.4L50,42.3l-1.3-0.7l1.8-3.6l1.3,0.7l-0.1,0.2
				c-0.5-0.2-1.2-0.3-1.5,0.3L50,39.6l3.7,1.9l0.3-0.6l0.1,0.1l-1,1.9l-0.1-0.1l0.3-0.6L49.7,40.2z"/>
			<path class="st0" d="M53.3,36.5L51,37.1l-0.1,0.5l-0.2,0l0.5-1.9l0.2,0l-0.2,0.6l2-0.5l-1.5-1.4l-0.2,0.6l-0.2,0l0.3-1.3l0.2,0
				l-0.1,0.5l1.7,1.6l2.1,0.5l0.2-0.6l0.2,0l-0.5,1.8l-0.2,0l0.2-0.6L53.3,36.5z"/>
			<g>
				<g>
					<path class="st0" d="M14.9,10.9c-0.5-0.9-0.3-2.1,0.6-2.6c0.9-0.6,2.1-0.3,2.6,0.6c0.5,0.9,0.3,2.1-0.6,2.6
						C16.6,12.1,15.5,11.8,14.9,10.9z M17.1,10.9c0.4-0.2,0.5-0.9,0.1-1.4C17,8.9,16.4,8.7,16,8.9c-0.4,0.2-0.5,0.9-0.1,1.4
						C16.1,10.9,16.7,11.1,17.1,10.9z"/>
				</g>
				<polygon class="st0" points="15.8,7.7 15.5,7.1 14.6,7.7 14.9,8.2 13.7,9 14.1,9.6 17.4,7.6 17.1,6.9 				"/>
				<polygon class="st0" points="18.3,5.7 17.4,6.2 20.5,11.3 21.4,10.7 19.7,7.8 20.5,7.3 20.1,6.7 19.3,7.2 				"/>
			</g>
			<g>
				<polygon class="st0" points="32.1,3 32.1,4.8 31.7,4.8 31.7,3 30.6,3 30.6,8.9 31.7,8.9 31.7,5.6 32.1,5.6 32.1,8.9 33.1,8.9 
					33.1,3 				"/>
				<path class="st0" d="M28.5,4h1.6V3.2h-2.7v3.5c0,0.4,0.3,0.7,0.7,0.7H31V6.7h-2.5V4z"/>
			</g>
			<g>
				<path class="st0" d="M8.9,20.2l1.4,0.7l1.9-3.6l0.6,0.3l-2.1,3.9c-0.2,0.3-0.6,0.5-0.9,0.3l-1.4-0.7L8.9,20.2z"/>
				
					<rect x="8.5" y="14.3" transform="matrix(0.4678 -0.8838 0.8838 0.4678 -9.6088 16.6843)" class="st0" width="1.1" height="3.9"/>
				<path class="st0" d="M6.2,20.9c-0.8-0.4-1-1.5-0.5-2.4c0.5-0.9,1.5-1.3,2.3-0.9c0.8,0.4,1,1.5,0.5,2.4C8,20.8,7,21.3,6.2,20.9z
					 M7.8,19.6c0.2-0.4,0.1-0.9-0.3-1.1c-0.4-0.2-0.9,0-1.1,0.4c-0.2,0.4-0.1,0.9,0.3,1.1C7.1,20.1,7.6,20,7.8,19.6z"/>
			</g>
			<g>
				<path class="st0" d="M41.4,7.4c0.4-0.6,1.4-0.7,2.2-0.2c0.8,0.5,1.1,1.5,0.7,2.1C44,10,43,10.1,42.2,9.5C41.3,9,41,8.1,41.4,7.4
					z M42.5,9c0.3,0.2,0.8,0.1,1-0.2c0.2-0.3,0.1-0.8-0.2-1c-0.3-0.2-0.8-0.1-1,0.2C42.1,8.3,42.2,8.8,42.5,9z"/>
				<polygon class="st0" points="44.2,7.5 44.5,6.9 43.6,6.3 43.3,6.9 42.1,6.1 41.7,6.7 44.9,8.8 45.3,8.2 				"/>
				<polygon class="st0" points="47.2,8.9 46.3,8.3 44.4,11.1 45.3,11.7 46.1,10.5 47,11 47.4,10.4 46.5,9.9 				"/>
				<polygon class="st0" points="41,9.2 40.6,9.8 43.8,12 43,13.3 43.9,13.9 45.2,12 				"/>
			</g>
			<g>
				<polygon class="st0" points="50,19.8 51.9,18.8 51.4,17.8 49.5,18.9 48,16.4 47.4,16.7 50.5,22.3 51.2,21.9 				"/>
				<polyline class="st0" points="48.9,18.5 51.1,17.3 50.5,16.3 48.4,17.6 				"/>
				<path class="st0" d="M54.5,18.6l-2.2-3.9L51.6,15l2,3.6l-3.4,1.9l0.5,1l3.5-2C54.6,19.4,54.7,18.9,54.5,18.6z"/>
			</g>
		</g>
		<g>
			<path class="st0" d="M41.4,20.3H37v-1.1h-1.7v-4.8h-6.7c-1.3,0-2.4,0.4-3.1,1.3c-0.7,0.8-1,1.8-1,3.1v1.6h-5.3l-2.2,20.5
				l13.3,5.6l13.3-5.6L41.4,20.3z M30.4,45.9L30.4,45.9L30.4,45.9l-12.8-5.4l0,0l0,0l2.1-19.7l0-0.1h0.1H25v-2
				c0-1.1,0.3-2.1,0.9-2.8c0.6-0.7,1.6-1.1,2.8-1.1h6.2h0.1v0.1v4.7h1.6h0.1v0.1v1H41H41l0,0.1l2.1,19.7l0,0l0,0L30.4,45.9z"/>
			<polygon class="st1" points="36.6,22.9 36.5,22.9 34.9,22.9 34.9,26 36.5,26 36.6,26 36.6,26 36.6,26.7 40.9,26.7 40.4,21.5 
				36.6,21.5 36.6,22.9 			"/>
			<polygon class="st1" points="20.4,21.5 19.8,26.7 25,26.7 25,21.5 			"/>
			<path class="st2" d="M41,27.5h-4.4v1.8v0.1h-0.1h-1.6v2.5v0.1h-0.1h-5.1h-0.1v-0.1v-4.3h-2V28c0,2.5-2.3,3.8-4.7,3.8H23h-0.1
				v-0.1v-2.6v-0.1H23h0.1c1.1,0,1.9-0.6,1.9-1.3v-0.3h-5.3L18.4,40l12,5.1l12-5.1L41,27.5z"/>
			<rect x="27.8" y="21.5" class="st1" width="2" height="5.3"/>
			<path class="st3" d="M29.1,17.2c-0.6,0-1.3,0.5-1.3,1.5v2h2v-3.4H29.1z M29.3,20.3h-1.1v-1.6c0-0.8,0.5-1,0.9-1h0.2V20.3z"/>
		</g>
		<g>
			<path class="st4" d="M24.7,35.7v0.3h0.8v2.9H26V35h-0.3C25.6,35.6,25.3,35.7,24.7,35.7z"/>
			<path class="st4" d="M28.2,35c-0.6,0-1,0.5-1,1.4c0,0.6,0.3,1.2,1,1.2c0.3,0,0.6-0.1,0.7-0.5h0c0,0.4,0,1.5-0.7,1.5
				c-0.4,0-0.5-0.2-0.5-0.5h-0.4c0,0.6,0.3,0.9,0.9,0.9c1.1,0,1.2-1.4,1.2-2.2C29.4,36,29.3,35,28.2,35z M28.3,37.2
				c-0.5,0-0.6-0.5-0.6-0.9c0-0.4,0.1-0.9,0.6-0.9c0.5,0,0.6,0.6,0.6,1C28.9,36.8,28.7,37.2,28.3,37.2z"/>
			<path class="st4" d="M31.5,36.3c-0.3,0-0.4,0.1-0.6,0.3l0.2-1.2h1.3v-0.4h-1.7l-0.2,2h0.4c0.1-0.2,0.3-0.4,0.5-0.4
				c0.6,0,0.7,0.5,0.7,0.9c0,0.5-0.2,0.9-0.6,0.9c-0.4,0-0.6-0.3-0.6-0.7h-0.5c0,0.7,0.3,1.1,1,1.1c0.8,0,1.1-0.7,1.1-1.4
				C32.5,37,32.2,36.3,31.5,36.3z"/>
			<path class="st4" d="M35,37.5V35h-0.4l-1.5,2.5v0.4h1.4v1H35v-1h0.4v-0.4H35z M34.5,37.5h-1.1l1.1-1.9V37.5z"/>
		</g>
	</g>
</g>
</svg>
